<mxfile host="65bd71144e">
    <diagram id="a186hk4_OYax-xzlF0Wj" name="ページ1">
        <mxGraphModel dx="623" dy="1207" grid="1" gridSize="10" guides="1" tooltips="1" connect="1" arrows="1" fold="1" page="1" pageScale="1" pageWidth="1169" pageHeight="827" math="0" shadow="0">
            <root>
                <mxCell id="0"/>
                <mxCell id="1" parent="0"/>
                <mxCell id="195" value="Actor" style="shape=umlActor;verticalLabelPosition=bottom;verticalAlign=top;html=1;outlineConnect=0;" parent="1" vertex="1">
                    <mxGeometry x="10" y="-750" width="30" height="60" as="geometry"/>
                </mxCell>
                <mxCell id="196" value="" style="rounded=0;whiteSpace=wrap;html=1;" parent="1" vertex="1">
                    <mxGeometry x="270" y="-810" width="120" height="290" as="geometry"/>
                </mxCell>
                <mxCell id="197" value="" style="rounded=0;whiteSpace=wrap;html=1;" parent="1" vertex="1">
                    <mxGeometry x="90" y="-780" width="120" height="230" as="geometry"/>
                </mxCell>
                <mxCell id="198" value="登録" style="ellipse;whiteSpace=wrap;html=1;" parent="1" vertex="1">
                    <mxGeometry x="100" y="-770" width="100" height="50" as="geometry"/>
                </mxCell>
                <mxCell id="200" value="ログイン" style="ellipse;whiteSpace=wrap;html=1;" parent="1" vertex="1">
                    <mxGeometry x="100" y="-700" width="100" height="50" as="geometry"/>
                </mxCell>
                <mxCell id="201" value="検索" style="ellipse;whiteSpace=wrap;html=1;" parent="1" vertex="1">
                    <mxGeometry x="275" y="-720" width="110" height="50" as="geometry"/>
                </mxCell>
                <mxCell id="202" value="エクスポート" style="ellipse;whiteSpace=wrap;html=1;" parent="1" vertex="1">
                    <mxGeometry x="275" y="-650" width="110" height="50" as="geometry"/>
                </mxCell>
                <mxCell id="203" value="詳細" style="ellipse;whiteSpace=wrap;html=1;" parent="1" vertex="1">
                    <mxGeometry x="275" y="-580" width="110" height="50" as="geometry"/>
                </mxCell>
                <mxCell id="257" value="" style="endArrow=none;html=1;entryX=0;entryY=0.5;entryDx=0;entryDy=0;" parent="1" target="198" edge="1">
                    <mxGeometry width="50" height="50" relative="1" as="geometry">
                        <mxPoint x="50" y="-710" as="sourcePoint"/>
                        <mxPoint x="100" y="-760" as="targetPoint"/>
                    </mxGeometry>
                </mxCell>
                <mxCell id="258" value="" style="endArrow=none;html=1;entryX=0;entryY=0.5;entryDx=0;entryDy=0;" parent="1" target="200" edge="1">
                    <mxGeometry width="50" height="50" relative="1" as="geometry">
                        <mxPoint x="50" y="-710" as="sourcePoint"/>
                        <mxPoint x="80" y="-680" as="targetPoint"/>
                    </mxGeometry>
                </mxCell>
                <mxCell id="259" value="" style="endArrow=none;html=1;entryX=0.056;entryY=0.685;entryDx=0;entryDy=0;entryPerimeter=0;" parent="1" target="201" edge="1">
                    <mxGeometry width="50" height="50" relative="1" as="geometry">
                        <mxPoint x="200" y="-680" as="sourcePoint"/>
                        <mxPoint x="250" y="-730" as="targetPoint"/>
                    </mxGeometry>
                </mxCell>
                <mxCell id="260" value="" style="endArrow=none;html=1;entryX=0.045;entryY=0.6;entryDx=0;entryDy=0;entryPerimeter=0;" parent="1" target="202" edge="1">
                    <mxGeometry width="50" height="50" relative="1" as="geometry">
                        <mxPoint x="200" y="-680" as="sourcePoint"/>
                        <mxPoint x="270" y="-700" as="targetPoint"/>
                    </mxGeometry>
                </mxCell>
                <mxCell id="261" value="" style="endArrow=none;html=1;entryX=0;entryY=0.5;entryDx=0;entryDy=0;" parent="1" target="203" edge="1">
                    <mxGeometry width="50" height="50" relative="1" as="geometry">
                        <mxPoint x="200" y="-680" as="sourcePoint"/>
                        <mxPoint x="250" y="-670" as="targetPoint"/>
                    </mxGeometry>
                </mxCell>
                <mxCell id="262" value="お問い合わせ" style="ellipse;whiteSpace=wrap;html=1;" parent="1" vertex="1">
                    <mxGeometry x="275" y="-790" width="110" height="50" as="geometry"/>
                </mxCell>
                <mxCell id="263" value="" style="endArrow=none;html=1;entryX=0;entryY=0.5;entryDx=0;entryDy=0;exitX=1;exitY=0.5;exitDx=0;exitDy=0;" parent="1" source="198" target="262" edge="1">
                    <mxGeometry width="50" height="50" relative="1" as="geometry">
                        <mxPoint x="210" y="-530" as="sourcePoint"/>
                        <mxPoint x="260" y="-580" as="targetPoint"/>
                    </mxGeometry>
                </mxCell>
                <mxCell id="264" value="お問い合わせ入力" style="swimlane;whiteSpace=wrap;html=1;fillColor=#f5f5f5;gradientColor=#b3b3b3;strokeColor=#666666;" parent="1" vertex="1">
                    <mxGeometry x="570" y="-450" width="220" height="430" as="geometry"/>
                </mxCell>
                <mxCell id="273" value="お問い合わせ内容" style="rounded=1;whiteSpace=wrap;html=1;" parent="264" vertex="1">
                    <mxGeometry x="55" y="390" width="110" height="30" as="geometry"/>
                </mxCell>
                <mxCell id="272" value="お問い合わせの種類" style="rounded=1;whiteSpace=wrap;html=1;" parent="264" vertex="1">
                    <mxGeometry x="55" y="350" width="110" height="30" as="geometry"/>
                </mxCell>
                <mxCell id="271" value="建物名" style="rounded=1;whiteSpace=wrap;html=1;" parent="264" vertex="1">
                    <mxGeometry x="55" y="310" width="110" height="30" as="geometry"/>
                </mxCell>
                <mxCell id="270" value="住所" style="rounded=1;whiteSpace=wrap;html=1;" parent="264" vertex="1">
                    <mxGeometry x="55" y="270" width="110" height="30" as="geometry"/>
                </mxCell>
                <mxCell id="269" value="電話番号" style="rounded=1;whiteSpace=wrap;html=1;" parent="264" vertex="1">
                    <mxGeometry x="55" y="230" width="110" height="30" as="geometry"/>
                </mxCell>
                <mxCell id="268" value="メールアドレス" style="rounded=1;whiteSpace=wrap;html=1;" parent="264" vertex="1">
                    <mxGeometry x="55" y="190" width="110" height="30" as="geometry"/>
                </mxCell>
                <mxCell id="274" value="名前" style="swimlane;whiteSpace=wrap;html=1;rounded=1;startSize=23;" parent="264" vertex="1">
                    <mxGeometry x="20" y="30" width="180" height="70" as="geometry"/>
                </mxCell>
                <mxCell id="275" value="苗字" style="rounded=1;whiteSpace=wrap;html=1;" parent="274" vertex="1">
                    <mxGeometry x="20" y="30" width="50" height="30" as="geometry"/>
                </mxCell>
                <mxCell id="276" value="名前" style="rounded=1;whiteSpace=wrap;html=1;" parent="274" vertex="1">
                    <mxGeometry x="110" y="30" width="50" height="30" as="geometry"/>
                </mxCell>
                <mxCell id="277" value="性別" style="swimlane;whiteSpace=wrap;html=1;rounded=1;startSize=25;" parent="264" vertex="1">
                    <mxGeometry x="15" y="110" width="190" height="70" as="geometry">
                        <mxRectangle x="640" y="-580" width="60" height="30" as="alternateBounds"/>
                    </mxGeometry>
                </mxCell>
                <mxCell id="278" value="男" style="rounded=1;whiteSpace=wrap;html=1;" parent="277" vertex="1">
                    <mxGeometry x="10" y="30" width="50" height="30" as="geometry"/>
                </mxCell>
                <mxCell id="279" value="女" style="rounded=1;whiteSpace=wrap;html=1;" parent="277" vertex="1">
                    <mxGeometry x="70" y="30" width="50" height="30" as="geometry"/>
                </mxCell>
                <mxCell id="281" value="その他" style="rounded=1;whiteSpace=wrap;html=1;" parent="277" vertex="1">
                    <mxGeometry x="130" y="30" width="50" height="30" as="geometry"/>
                </mxCell>
                <mxCell id="310" value="thanks" style="swimlane;whiteSpace=wrap;html=1;fillColor=#d5e8d4;gradientColor=#97d077;strokeColor=#82b366;" parent="1" vertex="1">
                    <mxGeometry x="972.5" y="-110" width="135" height="80" as="geometry"/>
                </mxCell>
                <mxCell id="311" value="home" style="rounded=1;whiteSpace=wrap;html=1;" parent="310" vertex="1">
                    <mxGeometry x="10" y="30" width="110" height="30" as="geometry"/>
                </mxCell>
                <mxCell id="312" value="" style="group" parent="1" vertex="1" connectable="0">
                    <mxGeometry x="800" y="-320" width="310" height="200" as="geometry"/>
                </mxCell>
                <mxCell id="282" value="お問い合わせ確認" style="swimlane;whiteSpace=wrap;html=1;fillColor=#FFE6CC;gradientColor=#FFCC99;strokeColor=#d79b00;" parent="312" vertex="1">
                    <mxGeometry width="310" height="200" as="geometry"/>
                </mxCell>
                <mxCell id="301" value="" style="group" parent="312" vertex="1" connectable="0">
                    <mxGeometry x="20" y="40" width="264" height="150" as="geometry"/>
                </mxCell>
                <mxCell id="302" value="名前" style="rounded=1;whiteSpace=wrap;html=1;" parent="301" vertex="1">
                    <mxGeometry width="110" height="30" as="geometry"/>
                </mxCell>
                <mxCell id="303" value="性別" style="rounded=1;whiteSpace=wrap;html=1;" parent="301" vertex="1">
                    <mxGeometry y="40" width="110" height="30" as="geometry"/>
                </mxCell>
                <mxCell id="304" value="メールアドレス" style="rounded=1;whiteSpace=wrap;html=1;" parent="301" vertex="1">
                    <mxGeometry y="80" width="110" height="30" as="geometry"/>
                </mxCell>
                <mxCell id="305" value="電話番号" style="rounded=1;whiteSpace=wrap;html=1;" parent="301" vertex="1">
                    <mxGeometry y="120" width="110" height="30" as="geometry"/>
                </mxCell>
                <mxCell id="306" value="住所" style="rounded=1;whiteSpace=wrap;html=1;" parent="301" vertex="1">
                    <mxGeometry x="154" width="110" height="30" as="geometry"/>
                </mxCell>
                <mxCell id="307" value="建物名" style="rounded=1;whiteSpace=wrap;html=1;" parent="301" vertex="1">
                    <mxGeometry x="154" y="40" width="110" height="30" as="geometry"/>
                </mxCell>
                <mxCell id="308" value="お問い合わせの種類" style="rounded=1;whiteSpace=wrap;html=1;" parent="301" vertex="1">
                    <mxGeometry x="154" y="80" width="110" height="30" as="geometry"/>
                </mxCell>
                <mxCell id="309" value="お問い合わせ内容" style="rounded=1;whiteSpace=wrap;html=1;" parent="301" vertex="1">
                    <mxGeometry x="154" y="120" width="110" height="30" as="geometry"/>
                </mxCell>
                <mxCell id="313" value="管理画面" style="swimlane;whiteSpace=wrap;html=1;fillColor=#f5f5f5;strokeColor=#666666;gradientColor=#b3b3b3;" parent="1" vertex="1">
                    <mxGeometry x="410" y="-810" width="750" height="340" as="geometry"/>
                </mxCell>
                <mxCell id="206" value="検索" style="swimlane;whiteSpace=wrap;html=1;rounded=1;fillColor=#d5e8d4;gradientColor=#97d077;strokeColor=#82b366;" parent="313" vertex="1">
                    <mxGeometry x="10" y="70" width="220" height="250" as="geometry"/>
                </mxCell>
                <mxCell id="210" value="名前（苗字or名前orフルネーム）" style="rounded=1;whiteSpace=wrap;html=1;" parent="206" vertex="1">
                    <mxGeometry x="10" y="40" width="200" height="30" as="geometry"/>
                </mxCell>
                <mxCell id="211" value="性別（男or女orその他）" style="rounded=1;whiteSpace=wrap;html=1;" parent="206" vertex="1">
                    <mxGeometry x="35" y="80" width="150" height="30" as="geometry"/>
                </mxCell>
                <mxCell id="215" value="メールアドレス" style="rounded=1;whiteSpace=wrap;html=1;" parent="206" vertex="1">
                    <mxGeometry x="55" y="120" width="110" height="30" as="geometry"/>
                </mxCell>
                <mxCell id="216" value="お問い合わせ種類" style="rounded=1;whiteSpace=wrap;html=1;" parent="206" vertex="1">
                    <mxGeometry x="50" y="160" width="120" height="30" as="geometry"/>
                </mxCell>
                <mxCell id="217" value="日付（&lt;font style=&quot;color: rgb(255, 102, 102);&quot;&gt;カレンダー入力&lt;/font&gt;）" style="rounded=1;whiteSpace=wrap;html=1;" parent="206" vertex="1">
                    <mxGeometry x="30" y="200" width="160" height="30" as="geometry"/>
                </mxCell>
                <mxCell id="319" value="" style="group" parent="313" vertex="1" connectable="0">
                    <mxGeometry x="240" y="70" width="170" height="150" as="geometry"/>
                </mxCell>
                <mxCell id="222" value="お問い合わせデータ&lt;div&gt;（検索済）&lt;/div&gt;" style="rounded=1;whiteSpace=wrap;html=1;flipH=0;flipV=0;" parent="319" vertex="1">
                    <mxGeometry x="15" y="87.5" width="140" height="30" as="geometry"/>
                </mxCell>
                <mxCell id="219" value="お問い合わせデータ" style="rounded=1;whiteSpace=wrap;html=1;flipH=0;flipV=0;" parent="319" vertex="1">
                    <mxGeometry x="15" y="32.5" width="140" height="30" as="geometry"/>
                </mxCell>
                <mxCell id="218" value="エクスポート（csv形式）" style="swimlane;whiteSpace=wrap;html=1;rounded=1;fillColor=#dae8fc;gradientColor=#7ea6e0;strokeColor=#6c8ebf;" parent="319" vertex="1">
                    <mxGeometry width="170" height="150" as="geometry"/>
                </mxCell>
                <mxCell id="320" value="" style="group" parent="313" vertex="1" connectable="0">
                    <mxGeometry x="420" y="30" width="320" height="300" as="geometry"/>
                </mxCell>
                <mxCell id="256" value="削除" style="rounded=1;whiteSpace=wrap;html=1;" parent="320" vertex="1">
                    <mxGeometry x="105" y="250" width="110" height="30" as="geometry"/>
                </mxCell>
                <mxCell id="255" value="表示" style="swimlane;whiteSpace=wrap;html=1;rounded=1;fillColor=#f5f5f5;gradientColor=#b3b3b3;strokeColor=#666666;" parent="320" vertex="1">
                    <mxGeometry x="10" y="30" width="300" height="200" as="geometry"/>
                </mxCell>
                <mxCell id="254" value="" style="group" parent="255" vertex="1" connectable="0">
                    <mxGeometry x="18" y="40" width="264" height="150" as="geometry"/>
                </mxCell>
                <mxCell id="224" value="名前" style="rounded=1;whiteSpace=wrap;html=1;" parent="254" vertex="1">
                    <mxGeometry width="110" height="30" as="geometry"/>
                </mxCell>
                <mxCell id="225" value="性別" style="rounded=1;whiteSpace=wrap;html=1;" parent="254" vertex="1">
                    <mxGeometry y="40" width="110" height="30" as="geometry"/>
                </mxCell>
                <mxCell id="226" value="メールアドレス" style="rounded=1;whiteSpace=wrap;html=1;" parent="254" vertex="1">
                    <mxGeometry y="80" width="110" height="30" as="geometry"/>
                </mxCell>
                <mxCell id="227" value="電話番号" style="rounded=1;whiteSpace=wrap;html=1;" parent="254" vertex="1">
                    <mxGeometry y="120" width="110" height="30" as="geometry"/>
                </mxCell>
                <mxCell id="228" value="住所" style="rounded=1;whiteSpace=wrap;html=1;" parent="254" vertex="1">
                    <mxGeometry x="154" width="110" height="30" as="geometry"/>
                </mxCell>
                <mxCell id="235" value="建物名" style="rounded=1;whiteSpace=wrap;html=1;" parent="254" vertex="1">
                    <mxGeometry x="154" y="40" width="110" height="30" as="geometry"/>
                </mxCell>
                <mxCell id="243" value="お問い合わせの種類" style="rounded=1;whiteSpace=wrap;html=1;" parent="254" vertex="1">
                    <mxGeometry x="154" y="80" width="110" height="30" as="geometry"/>
                </mxCell>
                <mxCell id="252" value="お問い合わせ内容" style="rounded=1;whiteSpace=wrap;html=1;" parent="254" vertex="1">
                    <mxGeometry x="154" y="120" width="110" height="30" as="geometry"/>
                </mxCell>
                <mxCell id="223" value="詳細" style="swimlane;whiteSpace=wrap;html=1;rounded=1;fillColor=#fff2cc;gradientColor=#ffd966;strokeColor=#d6b656;" parent="320" vertex="1">
                    <mxGeometry width="320" height="300" as="geometry"/>
                </mxCell>
                <mxCell id="336" value="" style="endArrow=classic;html=1;strokeWidth=5;" parent="313" edge="1">
                    <mxGeometry width="50" height="50" relative="1" as="geometry">
                        <mxPoint x="380" y="440" as="sourcePoint"/>
                        <mxPoint x="560" y="488" as="targetPoint"/>
                        <Array as="points">
                            <mxPoint x="560" y="440"/>
                        </Array>
                    </mxGeometry>
                </mxCell>
                <mxCell id="337" value="" style="endArrow=classic;html=1;strokeWidth=5;entryX=0;entryY=0.25;entryDx=0;entryDy=0;" parent="313" target="310" edge="1">
                    <mxGeometry width="50" height="50" relative="1" as="geometry">
                        <mxPoint x="460" y="690" as="sourcePoint"/>
                        <mxPoint x="560" y="750" as="targetPoint"/>
                        <Array as="points">
                            <mxPoint x="460" y="720"/>
                        </Array>
                    </mxGeometry>
                </mxCell>
                <mxCell id="344" value="" style="endArrow=classic;html=1;strokeWidth=5;exitX=0;exitY=0.75;exitDx=0;exitDy=0;" parent="313" source="310" edge="1">
                    <mxGeometry width="50" height="50" relative="1" as="geometry">
                        <mxPoint x="470" y="700" as="sourcePoint"/>
                        <mxPoint x="380" y="760" as="targetPoint"/>
                        <Array as="points"/>
                    </mxGeometry>
                </mxCell>
                <mxCell id="317" value="ユーザーデータ" style="swimlane;whiteSpace=wrap;html=1;fillColor=#f8cecc;gradientColor=#ea6b66;strokeColor=#b85450;startSize=23;" parent="1" vertex="1">
                    <mxGeometry x="255" y="-410" width="130" height="170" as="geometry"/>
                </mxCell>
                <mxCell id="332" value="名前" style="rounded=1;whiteSpace=wrap;html=1;" parent="317" vertex="1">
                    <mxGeometry x="10" y="40" width="110" height="30" as="geometry"/>
                </mxCell>
                <mxCell id="333" value="メールアドレス" style="rounded=1;whiteSpace=wrap;html=1;" parent="317" vertex="1">
                    <mxGeometry x="10" y="80" width="110" height="30" as="geometry"/>
                </mxCell>
                <mxCell id="334" value="パスワード" style="rounded=1;whiteSpace=wrap;html=1;" parent="317" vertex="1">
                    <mxGeometry x="10" y="120" width="110" height="30" as="geometry"/>
                </mxCell>
                <mxCell id="324" value="登録" style="swimlane;whiteSpace=wrap;html=1;" parent="1" vertex="1">
                    <mxGeometry x="40" y="-413" width="200" height="153" as="geometry"/>
                </mxCell>
                <mxCell id="325" value="名前" style="rounded=1;whiteSpace=wrap;html=1;" parent="324" vertex="1">
                    <mxGeometry x="40" y="33" width="110" height="30" as="geometry"/>
                </mxCell>
                <mxCell id="326" value="メールアドレス" style="rounded=1;whiteSpace=wrap;html=1;" parent="324" vertex="1">
                    <mxGeometry x="40" y="73" width="110" height="30" as="geometry"/>
                </mxCell>
                <mxCell id="327" value="パスワード" style="rounded=1;whiteSpace=wrap;html=1;" parent="324" vertex="1">
                    <mxGeometry x="40" y="113" width="110" height="30" as="geometry"/>
                </mxCell>
                <mxCell id="328" value="ログイン" style="swimlane;whiteSpace=wrap;html=1;" parent="1" vertex="1">
                    <mxGeometry x="400" y="-330" width="160" height="110" as="geometry"/>
                </mxCell>
                <mxCell id="330" value="メールアドレス" style="rounded=1;whiteSpace=wrap;html=1;" parent="328" vertex="1">
                    <mxGeometry x="25" y="30" width="110" height="30" as="geometry"/>
                </mxCell>
                <mxCell id="331" value="パスワード" style="rounded=1;whiteSpace=wrap;html=1;" parent="328" vertex="1">
                    <mxGeometry x="25" y="70" width="110" height="30" as="geometry"/>
                </mxCell>
                <mxCell id="335" value="" style="endArrow=classic;html=1;strokeWidth=5;exitX=0.5;exitY=0;exitDx=0;exitDy=0;" parent="1" source="328" edge="1">
                    <mxGeometry width="50" height="50" relative="1" as="geometry">
                        <mxPoint x="500" y="-410" as="sourcePoint"/>
                        <mxPoint x="500" y="-470" as="targetPoint"/>
                    </mxGeometry>
                </mxCell>
                <mxCell id="343" value="" style="endArrow=classic;html=1;strokeWidth=5;exitX=0.5;exitY=1;exitDx=0;exitDy=0;" parent="1" source="324" edge="1">
                    <mxGeometry width="50" height="50" relative="1" as="geometry">
                        <mxPoint x="510" y="-400" as="sourcePoint"/>
                        <mxPoint x="570" y="-70" as="targetPoint"/>
                        <Array as="points">
                            <mxPoint x="140" y="-70"/>
                        </Array>
                    </mxGeometry>
                </mxCell>
                <mxCell id="396" value="お問い合わせの種類" style="swimlane;whiteSpace=wrap;html=1;" parent="1" vertex="1">
                    <mxGeometry x="820" y="-460" width="330" height="70" as="geometry"/>
                </mxCell>
                <mxCell id="397" value="種類1" style="rounded=1;whiteSpace=wrap;html=1;" parent="396" vertex="1">
                    <mxGeometry x="10" y="30" width="50" height="30" as="geometry"/>
                </mxCell>
                <mxCell id="403" value="種類2" style="rounded=1;whiteSpace=wrap;html=1;" parent="396" vertex="1">
                    <mxGeometry x="80" y="31.5" width="50" height="30" as="geometry"/>
                </mxCell>
                <mxCell id="404" value="種類3" style="rounded=1;whiteSpace=wrap;html=1;" parent="396" vertex="1">
                    <mxGeometry x="150" y="30" width="50" height="30" as="geometry"/>
                </mxCell>
                <mxCell id="405" value="種類4" style="rounded=1;whiteSpace=wrap;html=1;" parent="396" vertex="1">
                    <mxGeometry x="210" y="30" width="50" height="30" as="geometry"/>
                </mxCell>
                <mxCell id="406" value="種類5" style="rounded=1;whiteSpace=wrap;html=1;" parent="396" vertex="1">
                    <mxGeometry x="270" y="30" width="50" height="30" as="geometry"/>
                </mxCell>
                <mxCell id="JidAyluxkgedh4ystLiz-407" value="" style="endArrow=classic;html=1;strokeWidth=5;entryX=0.5;entryY=1;entryDx=0;entryDy=0;" parent="1" target="328" edge="1">
                    <mxGeometry width="50" height="50" relative="1" as="geometry">
                        <mxPoint x="170" y="-260" as="sourcePoint"/>
                        <mxPoint x="600" y="-110" as="targetPoint"/>
                        <Array as="points">
                            <mxPoint x="170" y="-110"/>
                            <mxPoint x="480" y="-110"/>
                        </Array>
                    </mxGeometry>
                </mxCell>
                <mxCell id="JidAyluxkgedh4ystLiz-409" value="ページ閲覧" style="ellipse;whiteSpace=wrap;html=1;align=center;" parent="1" vertex="1">
                    <mxGeometry x="100" y="-620" width="100" height="40" as="geometry"/>
                </mxCell>
                <mxCell id="JidAyluxkgedh4ystLiz-410" value="" style="shape=flexArrow;endArrow=classic;html=1;exitX=0.647;exitY=0.002;exitDx=0;exitDy=0;exitPerimeter=0;entryX=0.5;entryY=0;entryDx=0;entryDy=0;" parent="1" source="324" target="317" edge="1">
                    <mxGeometry width="50" height="50" relative="1" as="geometry">
                        <mxPoint x="490" y="-400" as="sourcePoint"/>
                        <mxPoint x="340" y="-450" as="targetPoint"/>
                        <Array as="points">
                            <mxPoint x="170" y="-450"/>
                            <mxPoint x="320" y="-450"/>
                        </Array>
                    </mxGeometry>
                </mxCell>
                <mxCell id="JidAyluxkgedh4ystLiz-411" value="" style="shape=flexArrow;endArrow=classic;html=1;exitX=0.5;exitY=0;exitDx=0;exitDy=0;" parent="1" source="264" edge="1">
                    <mxGeometry width="50" height="50" relative="1" as="geometry">
                        <mxPoint x="490" y="-400" as="sourcePoint"/>
                        <mxPoint x="680" y="-490" as="targetPoint"/>
                    </mxGeometry>
                </mxCell>
                <mxCell id="JidAyluxkgedh4ystLiz-412" value="" style="shape=flexArrow;endArrow=classic;html=1;" parent="1" edge="1">
                    <mxGeometry width="50" height="50" relative="1" as="geometry">
                        <mxPoint x="350" y="-240" as="sourcePoint"/>
                        <mxPoint x="450" y="-220" as="targetPoint"/>
                        <Array as="points">
                            <mxPoint x="350" y="-160"/>
                            <mxPoint x="450" y="-160"/>
                        </Array>
                    </mxGeometry>
                </mxCell>
                <mxCell id="JidAyluxkgedh4ystLiz-413" value="" style="shape=flexArrow;endArrow=classic;html=1;exitX=0;exitY=0;exitDx=0;exitDy=0;" parent="1" source="396" edge="1">
                    <mxGeometry width="50" height="50" relative="1" as="geometry">
                        <mxPoint x="490" y="-400" as="sourcePoint"/>
                        <mxPoint x="780" y="-500" as="targetPoint"/>
                    </mxGeometry>
                </mxCell>
            </root>
        </mxGraphModel>
    </diagram>
    <diagram id="XIUJoFIRIqvUNuBuNSU5" name="ページ2">
        <mxGraphModel dx="623" dy="572" grid="1" gridSize="10" guides="1" tooltips="1" connect="1" arrows="1" fold="1" page="1" pageScale="1" pageWidth="1169" pageHeight="827" math="0" shadow="0">
            <root>
                <mxCell id="0"/>
                <mxCell id="1" parent="0"/>
                <mxCell id="DqhU7lSYUnh9cS1nYdbI-1" value="User" style="shape=table;startSize=30;container=1;collapsible=1;childLayout=tableLayout;fixedRows=1;rowLines=0;fontStyle=1;align=center;resizeLast=1;html=1;" parent="1" vertex="1">
                    <mxGeometry x="20" y="20" width="180" height="210" as="geometry"/>
                </mxCell>
                <mxCell id="DqhU7lSYUnh9cS1nYdbI-2" value="" style="shape=tableRow;horizontal=0;startSize=0;swimlaneHead=0;swimlaneBody=0;fillColor=none;collapsible=0;dropTarget=0;points=[[0,0.5],[1,0.5]];portConstraint=eastwest;top=0;left=0;right=0;bottom=1;" parent="DqhU7lSYUnh9cS1nYdbI-1" vertex="1">
                    <mxGeometry y="30" width="180" height="30" as="geometry"/>
                </mxCell>
                <mxCell id="DqhU7lSYUnh9cS1nYdbI-3" value="PK" style="shape=partialRectangle;connectable=0;fillColor=none;top=0;left=0;bottom=0;right=0;fontStyle=1;overflow=hidden;whiteSpace=wrap;html=1;" parent="DqhU7lSYUnh9cS1nYdbI-2" vertex="1">
                    <mxGeometry width="30" height="30" as="geometry">
                        <mxRectangle width="30" height="30" as="alternateBounds"/>
                    </mxGeometry>
                </mxCell>
                <mxCell id="DqhU7lSYUnh9cS1nYdbI-4" value="id" style="shape=partialRectangle;connectable=0;fillColor=none;top=0;left=0;bottom=0;right=0;align=left;spacingLeft=6;fontStyle=5;overflow=hidden;whiteSpace=wrap;html=1;" parent="DqhU7lSYUnh9cS1nYdbI-2" vertex="1">
                    <mxGeometry x="30" width="150" height="30" as="geometry">
                        <mxRectangle width="150" height="30" as="alternateBounds"/>
                    </mxGeometry>
                </mxCell>
                <mxCell id="DqhU7lSYUnh9cS1nYdbI-8" value="" style="shape=tableRow;horizontal=0;startSize=0;swimlaneHead=0;swimlaneBody=0;fillColor=none;collapsible=0;dropTarget=0;points=[[0,0.5],[1,0.5]];portConstraint=eastwest;top=0;left=0;right=0;bottom=0;" parent="DqhU7lSYUnh9cS1nYdbI-1" vertex="1">
                    <mxGeometry y="60" width="180" height="30" as="geometry"/>
                </mxCell>
                <mxCell id="DqhU7lSYUnh9cS1nYdbI-9" value="" style="shape=partialRectangle;connectable=0;fillColor=none;top=0;left=0;bottom=0;right=0;editable=1;overflow=hidden;whiteSpace=wrap;html=1;" parent="DqhU7lSYUnh9cS1nYdbI-8" vertex="1">
                    <mxGeometry width="30" height="30" as="geometry">
                        <mxRectangle width="30" height="30" as="alternateBounds"/>
                    </mxGeometry>
                </mxCell>
                <mxCell id="DqhU7lSYUnh9cS1nYdbI-10" value="name" style="shape=partialRectangle;connectable=0;fillColor=none;top=0;left=0;bottom=0;right=0;align=left;spacingLeft=6;overflow=hidden;whiteSpace=wrap;html=1;" parent="DqhU7lSYUnh9cS1nYdbI-8" vertex="1">
                    <mxGeometry x="30" width="150" height="30" as="geometry">
                        <mxRectangle width="150" height="30" as="alternateBounds"/>
                    </mxGeometry>
                </mxCell>
                <mxCell id="DqhU7lSYUnh9cS1nYdbI-11" value="" style="shape=tableRow;horizontal=0;startSize=0;swimlaneHead=0;swimlaneBody=0;fillColor=none;collapsible=0;dropTarget=0;points=[[0,0.5],[1,0.5]];portConstraint=eastwest;top=0;left=0;right=0;bottom=0;" parent="DqhU7lSYUnh9cS1nYdbI-1" vertex="1">
                    <mxGeometry y="90" width="180" height="30" as="geometry"/>
                </mxCell>
                <mxCell id="DqhU7lSYUnh9cS1nYdbI-12" value="" style="shape=partialRectangle;connectable=0;fillColor=none;top=0;left=0;bottom=0;right=0;editable=1;overflow=hidden;whiteSpace=wrap;html=1;" parent="DqhU7lSYUnh9cS1nYdbI-11" vertex="1">
                    <mxGeometry width="30" height="30" as="geometry">
                        <mxRectangle width="30" height="30" as="alternateBounds"/>
                    </mxGeometry>
                </mxCell>
                <mxCell id="DqhU7lSYUnh9cS1nYdbI-13" value="email (unique)" style="shape=partialRectangle;connectable=0;fillColor=none;top=0;left=0;bottom=0;right=0;align=left;spacingLeft=6;overflow=hidden;whiteSpace=wrap;html=1;" parent="DqhU7lSYUnh9cS1nYdbI-11" vertex="1">
                    <mxGeometry x="30" width="150" height="30" as="geometry">
                        <mxRectangle width="150" height="30" as="alternateBounds"/>
                    </mxGeometry>
                </mxCell>
                <mxCell id="DqhU7lSYUnh9cS1nYdbI-14" value="" style="shape=tableRow;horizontal=0;startSize=0;swimlaneHead=0;swimlaneBody=0;fillColor=none;collapsible=0;dropTarget=0;points=[[0,0.5],[1,0.5]];portConstraint=eastwest;top=0;left=0;right=0;bottom=0;" parent="DqhU7lSYUnh9cS1nYdbI-1" vertex="1">
                    <mxGeometry y="120" width="180" height="30" as="geometry"/>
                </mxCell>
                <mxCell id="DqhU7lSYUnh9cS1nYdbI-15" value="" style="shape=partialRectangle;connectable=0;fillColor=none;top=0;left=0;bottom=0;right=0;editable=1;overflow=hidden;whiteSpace=wrap;html=1;" parent="DqhU7lSYUnh9cS1nYdbI-14" vertex="1">
                    <mxGeometry width="30" height="30" as="geometry">
                        <mxRectangle width="30" height="30" as="alternateBounds"/>
                    </mxGeometry>
                </mxCell>
                <mxCell id="DqhU7lSYUnh9cS1nYdbI-16" value="password" style="shape=partialRectangle;connectable=0;fillColor=none;top=0;left=0;bottom=0;right=0;align=left;spacingLeft=6;overflow=hidden;whiteSpace=wrap;html=1;" parent="DqhU7lSYUnh9cS1nYdbI-14" vertex="1">
                    <mxGeometry x="30" width="150" height="30" as="geometry">
                        <mxRectangle width="150" height="30" as="alternateBounds"/>
                    </mxGeometry>
                </mxCell>
                <mxCell id="WH6bGl1CaL70S8kNc1QI-4" value="" style="shape=tableRow;horizontal=0;startSize=0;swimlaneHead=0;swimlaneBody=0;fillColor=none;collapsible=0;dropTarget=0;points=[[0,0.5],[1,0.5]];portConstraint=eastwest;top=0;left=0;right=0;bottom=0;" vertex="1" parent="DqhU7lSYUnh9cS1nYdbI-1">
                    <mxGeometry y="150" width="180" height="30" as="geometry"/>
                </mxCell>
                <mxCell id="WH6bGl1CaL70S8kNc1QI-5" value="" style="shape=partialRectangle;connectable=0;fillColor=none;top=0;left=0;bottom=0;right=0;editable=1;overflow=hidden;whiteSpace=wrap;html=1;" vertex="1" parent="WH6bGl1CaL70S8kNc1QI-4">
                    <mxGeometry width="30" height="30" as="geometry">
                        <mxRectangle width="30" height="30" as="alternateBounds"/>
                    </mxGeometry>
                </mxCell>
                <mxCell id="WH6bGl1CaL70S8kNc1QI-6" value="create_at" style="shape=partialRectangle;connectable=0;fillColor=none;top=0;left=0;bottom=0;right=0;align=left;spacingLeft=6;overflow=hidden;whiteSpace=wrap;html=1;" vertex="1" parent="WH6bGl1CaL70S8kNc1QI-4">
                    <mxGeometry x="30" width="150" height="30" as="geometry">
                        <mxRectangle width="150" height="30" as="alternateBounds"/>
                    </mxGeometry>
                </mxCell>
                <mxCell id="WH6bGl1CaL70S8kNc1QI-7" value="" style="shape=tableRow;horizontal=0;startSize=0;swimlaneHead=0;swimlaneBody=0;fillColor=none;collapsible=0;dropTarget=0;points=[[0,0.5],[1,0.5]];portConstraint=eastwest;top=0;left=0;right=0;bottom=0;" vertex="1" parent="DqhU7lSYUnh9cS1nYdbI-1">
                    <mxGeometry y="180" width="180" height="30" as="geometry"/>
                </mxCell>
                <mxCell id="WH6bGl1CaL70S8kNc1QI-8" value="" style="shape=partialRectangle;connectable=0;fillColor=none;top=0;left=0;bottom=0;right=0;editable=1;overflow=hidden;whiteSpace=wrap;html=1;" vertex="1" parent="WH6bGl1CaL70S8kNc1QI-7">
                    <mxGeometry width="30" height="30" as="geometry">
                        <mxRectangle width="30" height="30" as="alternateBounds"/>
                    </mxGeometry>
                </mxCell>
                <mxCell id="WH6bGl1CaL70S8kNc1QI-9" value="update_at" style="shape=partialRectangle;connectable=0;fillColor=none;top=0;left=0;bottom=0;right=0;align=left;spacingLeft=6;overflow=hidden;whiteSpace=wrap;html=1;" vertex="1" parent="WH6bGl1CaL70S8kNc1QI-7">
                    <mxGeometry x="30" width="150" height="30" as="geometry">
                        <mxRectangle width="150" height="30" as="alternateBounds"/>
                    </mxGeometry>
                </mxCell>
                <mxCell id="R6xWxiMw1nWI4LtuLH-N-1" value="Contacts" style="shape=table;startSize=30;container=1;collapsible=1;childLayout=tableLayout;fixedRows=1;rowLines=0;fontStyle=1;align=center;resizeLast=1;html=1;" parent="1" vertex="1">
                    <mxGeometry x="280" y="20" width="180" height="360" as="geometry"/>
                </mxCell>
                <mxCell id="R6xWxiMw1nWI4LtuLH-N-2" value="" style="shape=tableRow;horizontal=0;startSize=0;swimlaneHead=0;swimlaneBody=0;fillColor=none;collapsible=0;dropTarget=0;points=[[0,0.5],[1,0.5]];portConstraint=eastwest;top=0;left=0;right=0;bottom=1;" parent="R6xWxiMw1nWI4LtuLH-N-1" vertex="1">
                    <mxGeometry y="30" width="180" height="30" as="geometry"/>
                </mxCell>
                <mxCell id="R6xWxiMw1nWI4LtuLH-N-3" value="PK" style="shape=partialRectangle;connectable=0;fillColor=none;top=0;left=0;bottom=0;right=0;fontStyle=1;overflow=hidden;whiteSpace=wrap;html=1;" parent="R6xWxiMw1nWI4LtuLH-N-2" vertex="1">
                    <mxGeometry width="30" height="30" as="geometry">
                        <mxRectangle width="30" height="30" as="alternateBounds"/>
                    </mxGeometry>
                </mxCell>
                <mxCell id="R6xWxiMw1nWI4LtuLH-N-4" value="id" style="shape=partialRectangle;connectable=0;fillColor=none;top=0;left=0;bottom=0;right=0;align=left;spacingLeft=6;fontStyle=5;overflow=hidden;whiteSpace=wrap;html=1;" parent="R6xWxiMw1nWI4LtuLH-N-2" vertex="1">
                    <mxGeometry x="30" width="150" height="30" as="geometry">
                        <mxRectangle width="150" height="30" as="alternateBounds"/>
                    </mxGeometry>
                </mxCell>
                <mxCell id="kB6Zyom3m4nFvXZJzPRM-7" value="" style="shape=tableRow;horizontal=0;startSize=0;swimlaneHead=0;swimlaneBody=0;fillColor=none;collapsible=0;dropTarget=0;points=[[0,0.5],[1,0.5]];portConstraint=eastwest;top=0;left=0;right=0;bottom=1;" parent="R6xWxiMw1nWI4LtuLH-N-1" vertex="1">
                    <mxGeometry y="60" width="180" height="30" as="geometry"/>
                </mxCell>
                <mxCell id="kB6Zyom3m4nFvXZJzPRM-8" value="FK" style="shape=partialRectangle;connectable=0;fillColor=none;top=0;left=0;bottom=0;right=0;fontStyle=1;overflow=hidden;whiteSpace=wrap;html=1;" parent="kB6Zyom3m4nFvXZJzPRM-7" vertex="1">
                    <mxGeometry width="30" height="30" as="geometry">
                        <mxRectangle width="30" height="30" as="alternateBounds"/>
                    </mxGeometry>
                </mxCell>
                <mxCell id="kB6Zyom3m4nFvXZJzPRM-9" value="category_id" style="shape=partialRectangle;connectable=0;fillColor=none;top=0;left=0;bottom=0;right=0;align=left;spacingLeft=6;fontStyle=5;overflow=hidden;whiteSpace=wrap;html=1;" parent="kB6Zyom3m4nFvXZJzPRM-7" vertex="1">
                    <mxGeometry x="30" width="150" height="30" as="geometry">
                        <mxRectangle width="150" height="30" as="alternateBounds"/>
                    </mxGeometry>
                </mxCell>
                <mxCell id="R6xWxiMw1nWI4LtuLH-N-5" value="" style="shape=tableRow;horizontal=0;startSize=0;swimlaneHead=0;swimlaneBody=0;fillColor=none;collapsible=0;dropTarget=0;points=[[0,0.5],[1,0.5]];portConstraint=eastwest;top=0;left=0;right=0;bottom=0;" parent="R6xWxiMw1nWI4LtuLH-N-1" vertex="1">
                    <mxGeometry y="90" width="180" height="30" as="geometry"/>
                </mxCell>
                <mxCell id="R6xWxiMw1nWI4LtuLH-N-6" value="" style="shape=partialRectangle;connectable=0;fillColor=none;top=0;left=0;bottom=0;right=0;editable=1;overflow=hidden;whiteSpace=wrap;html=1;" parent="R6xWxiMw1nWI4LtuLH-N-5" vertex="1">
                    <mxGeometry width="30" height="30" as="geometry">
                        <mxRectangle width="30" height="30" as="alternateBounds"/>
                    </mxGeometry>
                </mxCell>
                <mxCell id="R6xWxiMw1nWI4LtuLH-N-7" value="name" style="shape=partialRectangle;connectable=0;fillColor=none;top=0;left=0;bottom=0;right=0;align=left;spacingLeft=6;overflow=hidden;whiteSpace=wrap;html=1;" parent="R6xWxiMw1nWI4LtuLH-N-5" vertex="1">
                    <mxGeometry x="30" width="150" height="30" as="geometry">
                        <mxRectangle width="150" height="30" as="alternateBounds"/>
                    </mxGeometry>
                </mxCell>
                <mxCell id="R6xWxiMw1nWI4LtuLH-N-11" value="" style="shape=tableRow;horizontal=0;startSize=0;swimlaneHead=0;swimlaneBody=0;fillColor=none;collapsible=0;dropTarget=0;points=[[0,0.5],[1,0.5]];portConstraint=eastwest;top=0;left=0;right=0;bottom=0;" parent="R6xWxiMw1nWI4LtuLH-N-1" vertex="1">
                    <mxGeometry y="120" width="180" height="30" as="geometry"/>
                </mxCell>
                <mxCell id="R6xWxiMw1nWI4LtuLH-N-12" value="" style="shape=partialRectangle;connectable=0;fillColor=none;top=0;left=0;bottom=0;right=0;editable=1;overflow=hidden;whiteSpace=wrap;html=1;" parent="R6xWxiMw1nWI4LtuLH-N-11" vertex="1">
                    <mxGeometry width="30" height="30" as="geometry">
                        <mxRectangle width="30" height="30" as="alternateBounds"/>
                    </mxGeometry>
                </mxCell>
                <mxCell id="R6xWxiMw1nWI4LtuLH-N-13" value="gender" style="shape=partialRectangle;connectable=0;fillColor=none;top=0;left=0;bottom=0;right=0;align=left;spacingLeft=6;overflow=hidden;whiteSpace=wrap;html=1;" parent="R6xWxiMw1nWI4LtuLH-N-11" vertex="1">
                    <mxGeometry x="30" width="150" height="30" as="geometry">
                        <mxRectangle width="150" height="30" as="alternateBounds"/>
                    </mxGeometry>
                </mxCell>
                <mxCell id="R6xWxiMw1nWI4LtuLH-N-14" value="" style="shape=tableRow;horizontal=0;startSize=0;swimlaneHead=0;swimlaneBody=0;fillColor=none;collapsible=0;dropTarget=0;points=[[0,0.5],[1,0.5]];portConstraint=eastwest;top=0;left=0;right=0;bottom=0;" parent="R6xWxiMw1nWI4LtuLH-N-1" vertex="1">
                    <mxGeometry y="150" width="180" height="30" as="geometry"/>
                </mxCell>
                <mxCell id="R6xWxiMw1nWI4LtuLH-N-15" value="" style="shape=partialRectangle;connectable=0;fillColor=none;top=0;left=0;bottom=0;right=0;editable=1;overflow=hidden;whiteSpace=wrap;html=1;" parent="R6xWxiMw1nWI4LtuLH-N-14" vertex="1">
                    <mxGeometry width="30" height="30" as="geometry">
                        <mxRectangle width="30" height="30" as="alternateBounds"/>
                    </mxGeometry>
                </mxCell>
                <mxCell id="R6xWxiMw1nWI4LtuLH-N-16" value="email" style="shape=partialRectangle;connectable=0;fillColor=none;top=0;left=0;bottom=0;right=0;align=left;spacingLeft=6;overflow=hidden;whiteSpace=wrap;html=1;" parent="R6xWxiMw1nWI4LtuLH-N-14" vertex="1">
                    <mxGeometry x="30" width="150" height="30" as="geometry">
                        <mxRectangle width="150" height="30" as="alternateBounds"/>
                    </mxGeometry>
                </mxCell>
                <mxCell id="R6xWxiMw1nWI4LtuLH-N-17" value="" style="shape=tableRow;horizontal=0;startSize=0;swimlaneHead=0;swimlaneBody=0;fillColor=none;collapsible=0;dropTarget=0;points=[[0,0.5],[1,0.5]];portConstraint=eastwest;top=0;left=0;right=0;bottom=0;" parent="R6xWxiMw1nWI4LtuLH-N-1" vertex="1">
                    <mxGeometry y="180" width="180" height="30" as="geometry"/>
                </mxCell>
                <mxCell id="R6xWxiMw1nWI4LtuLH-N-18" value="" style="shape=partialRectangle;connectable=0;fillColor=none;top=0;left=0;bottom=0;right=0;editable=1;overflow=hidden;whiteSpace=wrap;html=1;" parent="R6xWxiMw1nWI4LtuLH-N-17" vertex="1">
                    <mxGeometry width="30" height="30" as="geometry">
                        <mxRectangle width="30" height="30" as="alternateBounds"/>
                    </mxGeometry>
                </mxCell>
                <mxCell id="R6xWxiMw1nWI4LtuLH-N-19" value="tel" style="shape=partialRectangle;connectable=0;fillColor=none;top=0;left=0;bottom=0;right=0;align=left;spacingLeft=6;overflow=hidden;whiteSpace=wrap;html=1;" parent="R6xWxiMw1nWI4LtuLH-N-17" vertex="1">
                    <mxGeometry x="30" width="150" height="30" as="geometry">
                        <mxRectangle width="150" height="30" as="alternateBounds"/>
                    </mxGeometry>
                </mxCell>
                <mxCell id="R6xWxiMw1nWI4LtuLH-N-20" value="" style="shape=tableRow;horizontal=0;startSize=0;swimlaneHead=0;swimlaneBody=0;fillColor=none;collapsible=0;dropTarget=0;points=[[0,0.5],[1,0.5]];portConstraint=eastwest;top=0;left=0;right=0;bottom=0;" parent="R6xWxiMw1nWI4LtuLH-N-1" vertex="1">
                    <mxGeometry y="210" width="180" height="30" as="geometry"/>
                </mxCell>
                <mxCell id="R6xWxiMw1nWI4LtuLH-N-21" value="" style="shape=partialRectangle;connectable=0;fillColor=none;top=0;left=0;bottom=0;right=0;editable=1;overflow=hidden;whiteSpace=wrap;html=1;" parent="R6xWxiMw1nWI4LtuLH-N-20" vertex="1">
                    <mxGeometry width="30" height="30" as="geometry">
                        <mxRectangle width="30" height="30" as="alternateBounds"/>
                    </mxGeometry>
                </mxCell>
                <mxCell id="R6xWxiMw1nWI4LtuLH-N-22" value="adress" style="shape=partialRectangle;connectable=0;fillColor=none;top=0;left=0;bottom=0;right=0;align=left;spacingLeft=6;overflow=hidden;whiteSpace=wrap;html=1;" parent="R6xWxiMw1nWI4LtuLH-N-20" vertex="1">
                    <mxGeometry x="30" width="150" height="30" as="geometry">
                        <mxRectangle width="150" height="30" as="alternateBounds"/>
                    </mxGeometry>
                </mxCell>
                <mxCell id="zqlMN_GJfN-df6foIxjb-1" value="" style="shape=tableRow;horizontal=0;startSize=0;swimlaneHead=0;swimlaneBody=0;fillColor=none;collapsible=0;dropTarget=0;points=[[0,0.5],[1,0.5]];portConstraint=eastwest;top=0;left=0;right=0;bottom=0;" parent="R6xWxiMw1nWI4LtuLH-N-1" vertex="1">
                    <mxGeometry y="240" width="180" height="30" as="geometry"/>
                </mxCell>
                <mxCell id="zqlMN_GJfN-df6foIxjb-2" value="" style="shape=partialRectangle;connectable=0;fillColor=none;top=0;left=0;bottom=0;right=0;editable=1;overflow=hidden;whiteSpace=wrap;html=1;" parent="zqlMN_GJfN-df6foIxjb-1" vertex="1">
                    <mxGeometry width="30" height="30" as="geometry">
                        <mxRectangle width="30" height="30" as="alternateBounds"/>
                    </mxGeometry>
                </mxCell>
                <mxCell id="zqlMN_GJfN-df6foIxjb-3" value="building (nullable)" style="shape=partialRectangle;connectable=0;fillColor=none;top=0;left=0;bottom=0;right=0;align=left;spacingLeft=6;overflow=hidden;whiteSpace=wrap;html=1;" parent="zqlMN_GJfN-df6foIxjb-1" vertex="1">
                    <mxGeometry x="30" width="150" height="30" as="geometry">
                        <mxRectangle width="150" height="30" as="alternateBounds"/>
                    </mxGeometry>
                </mxCell>
                <mxCell id="R6xWxiMw1nWI4LtuLH-N-23" value="" style="shape=tableRow;horizontal=0;startSize=0;swimlaneHead=0;swimlaneBody=0;fillColor=none;collapsible=0;dropTarget=0;points=[[0,0.5],[1,0.5]];portConstraint=eastwest;top=0;left=0;right=0;bottom=0;" parent="R6xWxiMw1nWI4LtuLH-N-1" vertex="1">
                    <mxGeometry y="270" width="180" height="30" as="geometry"/>
                </mxCell>
                <mxCell id="R6xWxiMw1nWI4LtuLH-N-24" value="" style="shape=partialRectangle;connectable=0;fillColor=none;top=0;left=0;bottom=0;right=0;editable=1;overflow=hidden;whiteSpace=wrap;html=1;" parent="R6xWxiMw1nWI4LtuLH-N-23" vertex="1">
                    <mxGeometry width="30" height="30" as="geometry">
                        <mxRectangle width="30" height="30" as="alternateBounds"/>
                    </mxGeometry>
                </mxCell>
                <mxCell id="R6xWxiMw1nWI4LtuLH-N-25" value="detail (TEXT)" style="shape=partialRectangle;connectable=0;fillColor=none;top=0;left=0;bottom=0;right=0;align=left;spacingLeft=6;overflow=hidden;whiteSpace=wrap;html=1;" parent="R6xWxiMw1nWI4LtuLH-N-23" vertex="1">
                    <mxGeometry x="30" width="150" height="30" as="geometry">
                        <mxRectangle width="150" height="30" as="alternateBounds"/>
                    </mxGeometry>
                </mxCell>
                <mxCell id="WH6bGl1CaL70S8kNc1QI-10" value="" style="shape=tableRow;horizontal=0;startSize=0;swimlaneHead=0;swimlaneBody=0;fillColor=none;collapsible=0;dropTarget=0;points=[[0,0.5],[1,0.5]];portConstraint=eastwest;top=0;left=0;right=0;bottom=0;" vertex="1" parent="R6xWxiMw1nWI4LtuLH-N-1">
                    <mxGeometry y="300" width="180" height="30" as="geometry"/>
                </mxCell>
                <mxCell id="WH6bGl1CaL70S8kNc1QI-11" value="" style="shape=partialRectangle;connectable=0;fillColor=none;top=0;left=0;bottom=0;right=0;editable=1;overflow=hidden;whiteSpace=wrap;html=1;" vertex="1" parent="WH6bGl1CaL70S8kNc1QI-10">
                    <mxGeometry width="30" height="30" as="geometry">
                        <mxRectangle width="30" height="30" as="alternateBounds"/>
                    </mxGeometry>
                </mxCell>
                <mxCell id="WH6bGl1CaL70S8kNc1QI-12" value="&lt;span style=&quot;color: rgb(0, 0, 0);&quot;&gt;create_at&lt;/span&gt;" style="shape=partialRectangle;connectable=0;fillColor=none;top=0;left=0;bottom=0;right=0;align=left;spacingLeft=6;overflow=hidden;whiteSpace=wrap;html=1;" vertex="1" parent="WH6bGl1CaL70S8kNc1QI-10">
                    <mxGeometry x="30" width="150" height="30" as="geometry">
                        <mxRectangle width="150" height="30" as="alternateBounds"/>
                    </mxGeometry>
                </mxCell>
                <mxCell id="WH6bGl1CaL70S8kNc1QI-13" value="" style="shape=tableRow;horizontal=0;startSize=0;swimlaneHead=0;swimlaneBody=0;fillColor=none;collapsible=0;dropTarget=0;points=[[0,0.5],[1,0.5]];portConstraint=eastwest;top=0;left=0;right=0;bottom=0;" vertex="1" parent="R6xWxiMw1nWI4LtuLH-N-1">
                    <mxGeometry y="330" width="180" height="30" as="geometry"/>
                </mxCell>
                <mxCell id="WH6bGl1CaL70S8kNc1QI-14" value="" style="shape=partialRectangle;connectable=0;fillColor=none;top=0;left=0;bottom=0;right=0;editable=1;overflow=hidden;whiteSpace=wrap;html=1;" vertex="1" parent="WH6bGl1CaL70S8kNc1QI-13">
                    <mxGeometry width="30" height="30" as="geometry">
                        <mxRectangle width="30" height="30" as="alternateBounds"/>
                    </mxGeometry>
                </mxCell>
                <mxCell id="WH6bGl1CaL70S8kNc1QI-15" value="&lt;span style=&quot;color: rgb(0, 0, 0);&quot;&gt;update_at&lt;/span&gt;" style="shape=partialRectangle;connectable=0;fillColor=none;top=0;left=0;bottom=0;right=0;align=left;spacingLeft=6;overflow=hidden;whiteSpace=wrap;html=1;" vertex="1" parent="WH6bGl1CaL70S8kNc1QI-13">
                    <mxGeometry x="30" width="150" height="30" as="geometry">
                        <mxRectangle width="150" height="30" as="alternateBounds"/>
                    </mxGeometry>
                </mxCell>
                <mxCell id="Fs7c9eq-PSDQdfK6DOqS-1" value="Categories" style="shape=table;startSize=30;container=1;collapsible=1;childLayout=tableLayout;fixedRows=1;rowLines=0;fontStyle=1;align=center;resizeLast=1;html=1;" parent="1" vertex="1">
                    <mxGeometry x="585" y="20" width="180" height="150" as="geometry"/>
                </mxCell>
                <mxCell id="Fs7c9eq-PSDQdfK6DOqS-2" value="" style="shape=tableRow;horizontal=0;startSize=0;swimlaneHead=0;swimlaneBody=0;fillColor=none;collapsible=0;dropTarget=0;points=[[0,0.5],[1,0.5]];portConstraint=eastwest;top=0;left=0;right=0;bottom=1;" parent="Fs7c9eq-PSDQdfK6DOqS-1" vertex="1">
                    <mxGeometry y="30" width="180" height="30" as="geometry"/>
                </mxCell>
                <mxCell id="Fs7c9eq-PSDQdfK6DOqS-3" value="PK" style="shape=partialRectangle;connectable=0;fillColor=none;top=0;left=0;bottom=0;right=0;fontStyle=1;overflow=hidden;whiteSpace=wrap;html=1;" parent="Fs7c9eq-PSDQdfK6DOqS-2" vertex="1">
                    <mxGeometry width="30" height="30" as="geometry">
                        <mxRectangle width="30" height="30" as="alternateBounds"/>
                    </mxGeometry>
                </mxCell>
                <mxCell id="Fs7c9eq-PSDQdfK6DOqS-4" value="id" style="shape=partialRectangle;connectable=0;fillColor=none;top=0;left=0;bottom=0;right=0;align=left;spacingLeft=6;fontStyle=5;overflow=hidden;whiteSpace=wrap;html=1;" parent="Fs7c9eq-PSDQdfK6DOqS-2" vertex="1">
                    <mxGeometry x="30" width="150" height="30" as="geometry">
                        <mxRectangle width="150" height="30" as="alternateBounds"/>
                    </mxGeometry>
                </mxCell>
                <mxCell id="Fs7c9eq-PSDQdfK6DOqS-5" value="" style="shape=tableRow;horizontal=0;startSize=0;swimlaneHead=0;swimlaneBody=0;fillColor=none;collapsible=0;dropTarget=0;points=[[0,0.5],[1,0.5]];portConstraint=eastwest;top=0;left=0;right=0;bottom=0;" parent="Fs7c9eq-PSDQdfK6DOqS-1" vertex="1">
                    <mxGeometry y="60" width="180" height="30" as="geometry"/>
                </mxCell>
                <mxCell id="Fs7c9eq-PSDQdfK6DOqS-6" value="" style="shape=partialRectangle;connectable=0;fillColor=none;top=0;left=0;bottom=0;right=0;editable=1;overflow=hidden;whiteSpace=wrap;html=1;" parent="Fs7c9eq-PSDQdfK6DOqS-5" vertex="1">
                    <mxGeometry width="30" height="30" as="geometry">
                        <mxRectangle width="30" height="30" as="alternateBounds"/>
                    </mxGeometry>
                </mxCell>
                <mxCell id="Fs7c9eq-PSDQdfK6DOqS-7" value="name" style="shape=partialRectangle;connectable=0;fillColor=none;top=0;left=0;bottom=0;right=0;align=left;spacingLeft=6;overflow=hidden;whiteSpace=wrap;html=1;" parent="Fs7c9eq-PSDQdfK6DOqS-5" vertex="1">
                    <mxGeometry x="30" width="150" height="30" as="geometry">
                        <mxRectangle width="150" height="30" as="alternateBounds"/>
                    </mxGeometry>
                </mxCell>
                <mxCell id="WH6bGl1CaL70S8kNc1QI-16" value="" style="shape=tableRow;horizontal=0;startSize=0;swimlaneHead=0;swimlaneBody=0;fillColor=none;collapsible=0;dropTarget=0;points=[[0,0.5],[1,0.5]];portConstraint=eastwest;top=0;left=0;right=0;bottom=0;" vertex="1" parent="Fs7c9eq-PSDQdfK6DOqS-1">
                    <mxGeometry y="90" width="180" height="30" as="geometry"/>
                </mxCell>
                <mxCell id="WH6bGl1CaL70S8kNc1QI-17" value="" style="shape=partialRectangle;connectable=0;fillColor=none;top=0;left=0;bottom=0;right=0;editable=1;overflow=hidden;whiteSpace=wrap;html=1;" vertex="1" parent="WH6bGl1CaL70S8kNc1QI-16">
                    <mxGeometry width="30" height="30" as="geometry">
                        <mxRectangle width="30" height="30" as="alternateBounds"/>
                    </mxGeometry>
                </mxCell>
                <mxCell id="WH6bGl1CaL70S8kNc1QI-18" value="&lt;span style=&quot;color: rgb(0, 0, 0);&quot;&gt;create_at&lt;/span&gt;" style="shape=partialRectangle;connectable=0;fillColor=none;top=0;left=0;bottom=0;right=0;align=left;spacingLeft=6;overflow=hidden;whiteSpace=wrap;html=1;" vertex="1" parent="WH6bGl1CaL70S8kNc1QI-16">
                    <mxGeometry x="30" width="150" height="30" as="geometry">
                        <mxRectangle width="150" height="30" as="alternateBounds"/>
                    </mxGeometry>
                </mxCell>
                <mxCell id="WH6bGl1CaL70S8kNc1QI-19" value="" style="shape=tableRow;horizontal=0;startSize=0;swimlaneHead=0;swimlaneBody=0;fillColor=none;collapsible=0;dropTarget=0;points=[[0,0.5],[1,0.5]];portConstraint=eastwest;top=0;left=0;right=0;bottom=0;" vertex="1" parent="Fs7c9eq-PSDQdfK6DOqS-1">
                    <mxGeometry y="120" width="180" height="30" as="geometry"/>
                </mxCell>
                <mxCell id="WH6bGl1CaL70S8kNc1QI-20" value="" style="shape=partialRectangle;connectable=0;fillColor=none;top=0;left=0;bottom=0;right=0;editable=1;overflow=hidden;whiteSpace=wrap;html=1;" vertex="1" parent="WH6bGl1CaL70S8kNc1QI-19">
                    <mxGeometry width="30" height="30" as="geometry">
                        <mxRectangle width="30" height="30" as="alternateBounds"/>
                    </mxGeometry>
                </mxCell>
                <mxCell id="WH6bGl1CaL70S8kNc1QI-21" value="&lt;span style=&quot;color: rgb(0, 0, 0);&quot;&gt;update_at&lt;/span&gt;" style="shape=partialRectangle;connectable=0;fillColor=none;top=0;left=0;bottom=0;right=0;align=left;spacingLeft=6;overflow=hidden;whiteSpace=wrap;html=1;" vertex="1" parent="WH6bGl1CaL70S8kNc1QI-19">
                    <mxGeometry x="30" width="150" height="30" as="geometry">
                        <mxRectangle width="150" height="30" as="alternateBounds"/>
                    </mxGeometry>
                </mxCell>
                <mxCell id="kB6Zyom3m4nFvXZJzPRM-11" value="" style="fontSize=12;html=1;endArrow=ERoneToMany;startArrow=ERmandOne;exitX=0;exitY=0.5;exitDx=0;exitDy=0;entryX=1;entryY=0.5;entryDx=0;entryDy=0;endFill=0;" parent="1" source="Fs7c9eq-PSDQdfK6DOqS-2" target="R6xWxiMw1nWI4LtuLH-N-2" edge="1">
                    <mxGeometry width="100" height="100" relative="1" as="geometry">
                        <mxPoint x="210" y="105" as="sourcePoint"/>
                        <mxPoint x="290" y="105" as="targetPoint"/>
                        <Array as="points">
                            <mxPoint x="500" y="65"/>
                        </Array>
                    </mxGeometry>
                </mxCell>
            </root>
        </mxGraphModel>
    </diagram>
</mxfile>